HIERARCHY
ROOT Hips
{
	OFFSET 54.064400 -7.639425 91.553596
	CHANNELS 6 Xposition Yposition Zposition Xrotation Yrotation Zrotation
	JOINT spine
	{
		OFFSET 0.000000 -0.393701 6.846367
		CHANNELS 3 Xrotation Yrotation Zrotation
		JOINT spine1
		{
			OFFSET 0.000000 -0.000001 9.496208
			CHANNELS 3 Xrotation Yrotation Zrotation
			JOINT spine2
			{
				OFFSET 0.000000 -0.000002 9.099091
				CHANNELS 3 Xrotation Yrotation Zrotation
				JOINT Neck
				{
					OFFSET 0.000000 -1.113784 23.361198
					CHANNELS 3 Xrotation Yrotation Zrotation
					JOINT Head
					{
						OFFSET 0.000000 -0.000001 7.058014
						CHANNELS 3 Xrotation Yrotation Zrotation
						End Site
						{
							OFFSET 0.000000 5.634187 17.084396
						}
					}
				}
				JOINT RightShoulder
				{
					OFFSET -3.831360 0.533490 9.826309
					CHANNELS 3 Xrotation Yrotation Zrotation
					JOINT RightArm
					{
						OFFSET 0.000000 -0.000002 12.888100
						CHANNELS 3 Xrotation Yrotation Zrotation
						JOINT RightArmRoll
						{
							OFFSET 0.000000 -0.000001 6.506165
							CHANNELS 3 Xrotation Yrotation Zrotation
							JOINT RightForeArm
							{
								OFFSET 0.000000 -0.000003 18.950104
								CHANNELS 3 Xrotation Yrotation Zrotation
								JOINT RightForeArmRoll
								{
									OFFSET 0.000000 -0.000001 7.300919
									CHANNELS 3 Xrotation Yrotation Zrotation
									JOINT RightHand
									{
										OFFSET 0.000000 -0.000002 14.651398
										CHANNELS 3 Xrotation Yrotation Zrotation
										End Site
										{
											OFFSET 0.000000 0.000000 0.100006
										}
									}
								}
							}
						}
					}
				}
				JOINT LeftShoulder
				{
					OFFSET 3.831360 0.533490 9.826309
					CHANNELS 3 Xrotation Yrotation Zrotation
					JOINT LeftArm
					{
						OFFSET 0.000000 -0.000002 12.888100
						CHANNELS 3 Xrotation Yrotation Zrotation
						JOINT LeftArmRoll
						{
							OFFSET 0.000000 -0.000001 6.506165
							CHANNELS 3 Xrotation Yrotation Zrotation
							JOINT LeftForeArm
							{
								OFFSET 0.000000 -0.000003 18.950104
								CHANNELS 3 Xrotation Yrotation Zrotation
								JOINT LeftForeArmRoll
								{
									OFFSET 0.000000 -0.000001 7.300919
									CHANNELS 3 Xrotation Yrotation Zrotation
									JOINT LeftHand
									{
										OFFSET 0.000000 -0.000002 14.651398
										CHANNELS 3 Xrotation Yrotation Zrotation
										End Site
										{
											OFFSET 0.000000 0.000000 0.100006
										}
									}
								}
							}
						}
					}
				}
			}
		}
	}
	JOINT RightUpLeg
	{
		OFFSET -6.068371 0.933477 -1.112778
		CHANNELS 3 Xrotation Yrotation Zrotation
		JOINT RightUpLegRoll
		{
			OFFSET 0.000000 -0.000003 17.179604
			CHANNELS 3 Xrotation Yrotation Zrotation
			JOINT RightLeg
			{
				OFFSET 0.000000 0.000003 -21.274300
				CHANNELS 3 Xrotation Yrotation Zrotation
				JOINT RightLegRoll
				{
					OFFSET 0.000000 -0.000003 21.343903
					CHANNELS 3 Xrotation Yrotation Zrotation
					JOINT RightFoot
					{
						OFFSET 0.000000 -0.000003 17.765198
						CHANNELS 3 Xrotation Yrotation Zrotation
						JOINT RightToeBase
						{
							OFFSET 0.000000 -0.000002 14.850807
							CHANNELS 3 Xrotation Yrotation Zrotation
							End Site
							{
								OFFSET 0.006294 0.829003 7.192139
							}
						}
					}
				}
			}
		}
	}
	JOINT LeftUpLeg
	{
		OFFSET 6.068371 0.933477 -1.112778
		CHANNELS 3 Xrotation Yrotation Zrotation
		JOINT LeftUpLegRoll
		{
			OFFSET 0.000000 -0.000003 17.179703
			CHANNELS 3 Xrotation Yrotation Zrotation
			JOINT LeftLeg
			{
				OFFSET 0.000000 -0.000003 21.274193
				CHANNELS 3 Xrotation Yrotation Zrotation
				JOINT LeftLegRoll
				{
					OFFSET 0.000000 -0.000003 21.541199
					CHANNELS 3 Xrotation Yrotation Zrotation
					JOINT LeftFoot
					{
						OFFSET 0.000000 -0.000003 17.567902
						CHANNELS 3 Xrotation Yrotation Zrotation
						JOINT LeftToeBase
						{
							OFFSET 0.000000 -0.000002 14.850800
							CHANNELS 3 Xrotation Yrotation Zrotation
							End Site
							{
								OFFSET -0.028210 0.829002 7.192139
							}
						}
					}
				}
			}
		}
	}
}
MOTION
Frames: 6
Frame Time: 0.041667
54.722095 -6.466910 91.617004 -5.882059 -0.445134 -0.379858 -1.734503 -0.061148 -0.117113 0.545122 -0.112918 -0.243175 2.190184 -0.115789 -0.241630 26.851555 3.508513 -0.362264 -5.006349 -2.722908 -0.087349 10.959380 -64.088061 11.845840 -68.296291 -125.874430 -96.950403 0.000002 0.000002 -0.000003 62.013705 -8.569132 3.748124 -0.000006 0.000015 -3.000003 -5.000169 -7.998757 0.000169 3.512605 65.589883 -3.195562 -60.539464 130.980188 77.099674 0.000001 0.000004 0.000001 58.817744 13.215700 -5.373868 -0.000004 -0.000001 3.010519 -5.000228 7.998730 -0.000154 2.652678 -174.869467 1.691383 179.999991 -0.000005 -1.201002 174.716553 -1.307426 -0.234899 0.000001 0.000002 0.032072 68.578630 6.925656 2.050595 25.456957 -7.355613 0.000001 6.212338 175.995574 -0.593908 -0.000005 -0.000005 -1.227460 -4.652850 1.891262 0.199762 -0.000002 0.000001 -0.038111 68.833724 -6.927401 -2.062544 25.456962 7.355615 -0.000000 
54.681095 -6.465093 91.611496 -5.880229 -0.447102 -0.385789 -1.734221 -0.062261 -0.117277 0.544197 -0.113866 -0.243689 2.189255 -0.116738 -0.242133 26.856478 3.521873 -0.367008 -5.007005 -2.731114 -0.091025 10.983045 -64.101831 11.870059 -68.463863 -125.792400 -97.026198 0.000002 -0.000000 -0.000003 61.888467 -8.623452 3.777992 -0.000007 0.000013 -2.999998 -5.000171 -7.998764 0.000164 3.476563 65.600531 -3.153396 -60.583477 130.810048 77.127104 0.000003 0.000003 0.000002 58.916850 13.170316 -5.360602 -0.000004 -0.000001 3.010509 -5.000230 7.998721 -0.000156 2.653328 -174.865479 1.691945 179.999991 -0.000005 -1.201002 174.716143 -1.304433 -0.234632 0.000002 0.000002 0.032086 68.578303 6.925635 2.050512 25.456957 -7.355614 0.000000 6.214902 175.998580 -0.594348 -0.000005 -0.000005 -1.227500 -4.652048 1.894124 0.199691 -0.000003 0.000001 -0.038038 68.833089 -6.927400 -2.062581 25.456964 7.355614 -0.000001 
54.696396 -6.471455 91.612206 -5.878530 -0.449492 -0.391338 -1.733882 -0.063294 -0.117435 0.543355 -0.114660 -0.244163 2.188415 -0.117532 -0.242599 26.860916 3.535540 -0.371752 -5.007757 -2.739728 -0.094689 11.006588 -64.115812 11.894116 -68.631940 -125.710192 -97.096883 0.000002 0.000002 -0.000005 61.759855 -8.678511 3.807458 -0.000007 0.000016 -3.000000 -5.000170 -7.998765 0.000165 3.438644 65.610401 -3.109227 -60.627758 130.640673 77.152184 0.000003 0.000003 0.000002 59.013258 13.125399 -5.346982 -0.000004 -0.000001 3.010510 -5.000229 7.998724 -0.000155 2.654066 -174.861490 1.693176 179.999991 -0.000006 -1.200005 174.715870 -1.302447 -0.234455 0.000002 0.000002 0.032101 68.577893 6.925680 2.050446 25.456957 -7.355613 0.000000 6.217408 176.002582 -0.594272 -0.000005 -0.000005 -1.227540 -4.651695 1.896727 0.199641 -0.000003 0.000001 -0.037980 68.832652 -6.927375 -2.062605 25.456964 7.355615 -0.000001 
54.682198 -6.465105 91.609901 -5.876973 -0.452263 -0.396417 -1.733491 -0.064240 -0.117585 0.542609 -0.115313 -0.244592 2.187674 -0.118186 -0.243022 26.864959 3.549406 -0.376529 -5.008629 -2.748839 -0.098364 11.029573 -64.129432 11.917595 -68.801643 -125.627260 -97.165206 -0.000001 0.000001 -0.000002 61.629480 -8.733715 3.836515 -0.000006 0.000018 -3.000000 -5.000170 -7.998759 0.000165 3.398752 65.619308 -3.062941 -60.672181 130.473361 77.173078 0.000004 0.000002 0.000002 59.105602 13.081391 -5.333119 -0.000004 0.000001 3.010499 -5.000230 7.998726 -0.000155 2.654858 -174.857501 1.695182 179.999991 -0.000005 -1.200004 174.715856 -1.301454 -0.234363 0.000002 0.000002 0.032116 68.577797 6.925673 2.050350 25.456957 -7.355613 0.000000 6.219725 176.006557 -0.593755 -0.000005 -0.000004 -1.227570 -4.651941 1.898959 0.199618 -0.000003 0.000001 -0.037944 68.832461 -6.927434 -2.062527 25.456960 7.355615 -0.000001 
54.683296 -6.470785 91.609406 -5.875506 -0.455373 -0.400942 -1.733068 -0.065094 -0.117727 0.541964 -0.115837 -0.244974 2.187035 -0.118710 -0.243398 26.868304 3.563383 -0.381360 -5.009621 -2.758538 -0.102081 11.051583 -64.142313 11.940106 -68.970116 -125.543959 -97.229054 -0.000001 0.000001 -0.000002 61.498764 -8.788497 3.864700 -0.000008 0.000015 -3.000001 -5.000172 -7.998764 0.000164 3.356707 65.627347 -3.014352 -60.717294 130.308589 77.189006 0.000004 0.000004 0.000003 59.192113 13.038780 -5.318964 -0.000004 -0.000005 3.010499 -5.000230 7.998718 -0.000155 2.655664 -174.852501 1.698104 179.999991 -0.000005 -1.200004 174.716266 -1.302447 -0.234445 0.000002 0.000002 0.032131 68.577790 6.925672 2.050350 25.456955 -7.355612 0.000001 6.221722 176.010560 -0.592759 -0.000005 -0.000004 -1.227610 -4.652966 1.900730 0.199630 -0.000003 0.000001 -0.037936 68.832775 -6.927415 -2.062505 25.456965 7.355616 -0.000000 
54.684296 -6.464756 91.607803 -5.874141 -0.458780 -0.404829 -1.732630 -0.065848 -0.117864 0.541433 -0.116246 -0.245305 2.186505 -0.119119 -0.243726 26.870753 3.577379 -0.386271 -5.010736 -2.768923 -0.105869 11.072154 -64.153884 11.961216 -69.138528 -125.459729 -97.291229 0.000001 -0.000001 -0.000003 61.369209 -8.842243 3.891822 -0.000006 0.000018 -2.999997 -5.000169 -7.998761 0.000164 3.312426 65.634416 -2.963363 -60.765003 130.146700 77.200590 0.000002 0.000002 -0.000000 59.271466 12.998118 -5.304817 -0.000005 0.000002 3.010499 -5.000229 7.998726 -0.000152 2.656420 -174.846504 1.702049 179.999991 -0.000005 -1.200004 174.717154 -1.304435 -0.234609 0.000002 0.000002 0.032146 68.578023 6.925723 2.050347 25.456953 -7.355613 -0.000000 6.223245 176.015532 -0.591142 -0.000005 -0.000004 -1.227650 -4.654930 1.901930 0.199686 -0.000003 0.000001 -0.037962 68.833513 -6.927388 -2.062554 25.456964 7.355616 -0.000001 
